<mxfile host="app.diagrams.net" agent="Mozilla/5.0 (Macintosh; Intel Mac OS X 10_15_7) AppleWebKit/605.1.15 (KHTML, like Gecko) Version/26.0.1 Safari/605.1.15" version="28.2.8">
  <diagram name="Pagina-1" id="WDGHYz-szfNMHyYnzZe8">
    <mxGraphModel dx="1188" dy="685" grid="1" gridSize="10" guides="1" tooltips="1" connect="1" arrows="1" fold="1" page="1" pageScale="1" pageWidth="827" pageHeight="1169" math="0" shadow="0">
      <root>
        <mxCell id="0" />
        <mxCell id="1" parent="0" />
        <mxCell id="oWvp3xGRfrT-TQwUBvzM-1" value="inizio" style="rounded=1;whiteSpace=wrap;html=1;fillColor=#e1d5e7;strokeColor=#9673a6;" vertex="1" parent="1">
          <mxGeometry x="400" y="10" width="100" height="50" as="geometry" />
        </mxCell>
        <mxCell id="oWvp3xGRfrT-TQwUBvzM-6" value="Dichiara Nome : Stringa" style="shape=internalStorage;whiteSpace=wrap;html=1;backgroundOutline=1;fillColor=#fff2cc;strokeColor=#d6b656;" vertex="1" parent="1">
          <mxGeometry x="345" y="100" width="210" height="60" as="geometry" />
        </mxCell>
        <mxCell id="oWvp3xGRfrT-TQwUBvzM-7" value="Leggi Nome" style="shape=parallelogram;perimeter=parallelogramPerimeter;whiteSpace=wrap;html=1;fixedSize=1;fillColor=#dae8fc;strokeColor=#6c8ebf;" vertex="1" parent="1">
          <mxGeometry x="380" y="200" width="150" height="50" as="geometry" />
        </mxCell>
        <mxCell id="oWvp3xGRfrT-TQwUBvzM-8" value="" style="edgeStyle=orthogonalEdgeStyle;rounded=0;orthogonalLoop=1;jettySize=auto;html=1;" edge="1" parent="1">
          <mxGeometry relative="1" as="geometry">
            <mxPoint x="449.58" y="160" as="sourcePoint" />
            <mxPoint x="450" y="200" as="targetPoint" />
            <Array as="points">
              <mxPoint x="449.58" y="180" />
              <mxPoint x="449.58" y="180" />
            </Array>
          </mxGeometry>
        </mxCell>
        <mxCell id="oWvp3xGRfrT-TQwUBvzM-9" value="" style="edgeStyle=orthogonalEdgeStyle;rounded=0;orthogonalLoop=1;jettySize=auto;html=1;" edge="1" parent="1">
          <mxGeometry relative="1" as="geometry">
            <mxPoint x="1070" y="730" as="sourcePoint" />
            <mxPoint x="1070" y="780" as="targetPoint" />
            <Array as="points">
              <mxPoint x="1070" y="750" />
              <mxPoint x="1070" y="750" />
            </Array>
          </mxGeometry>
        </mxCell>
        <mxCell id="oWvp3xGRfrT-TQwUBvzM-12" value="" style="edgeStyle=orthogonalEdgeStyle;rounded=0;orthogonalLoop=1;jettySize=auto;html=1;" edge="1" parent="1">
          <mxGeometry relative="1" as="geometry">
            <mxPoint x="449.58000000000004" y="250" as="sourcePoint" />
            <mxPoint x="450" y="290" as="targetPoint" />
            <Array as="points">
              <mxPoint x="449.58000000000004" y="270" />
              <mxPoint x="449.58000000000004" y="270" />
            </Array>
          </mxGeometry>
        </mxCell>
        <mxCell id="oWvp3xGRfrT-TQwUBvzM-13" value="Scrivi &quot;Il tuo nome Ã¨&quot; ..." style="shape=parallelogram;perimeter=parallelogramPerimeter;whiteSpace=wrap;html=1;fixedSize=1;fillColor=#d5e8d4;strokeColor=#82b366;" vertex="1" parent="1">
          <mxGeometry x="360" y="290" width="180" height="50" as="geometry" />
        </mxCell>
        <mxCell id="oWvp3xGRfrT-TQwUBvzM-14" value="Scrivi Nome" style="shape=parallelogram;perimeter=parallelogramPerimeter;whiteSpace=wrap;html=1;fixedSize=1;fillColor=#d5e8d4;strokeColor=#82b366;" vertex="1" parent="1">
          <mxGeometry x="370" y="380" width="160" height="50" as="geometry" />
        </mxCell>
        <mxCell id="oWvp3xGRfrT-TQwUBvzM-17" value="" style="edgeStyle=orthogonalEdgeStyle;rounded=0;orthogonalLoop=1;jettySize=auto;html=1;" edge="1" parent="1">
          <mxGeometry relative="1" as="geometry">
            <mxPoint x="449.58" y="340" as="sourcePoint" />
            <mxPoint x="449.99999999999994" y="380" as="targetPoint" />
            <Array as="points">
              <mxPoint x="449.58" y="360" />
              <mxPoint x="449.58" y="360" />
            </Array>
          </mxGeometry>
        </mxCell>
        <mxCell id="oWvp3xGRfrT-TQwUBvzM-18" value="" style="edgeStyle=orthogonalEdgeStyle;rounded=0;orthogonalLoop=1;jettySize=auto;html=1;" edge="1" parent="1">
          <mxGeometry relative="1" as="geometry">
            <mxPoint x="449.58" y="60" as="sourcePoint" />
            <mxPoint x="450" y="100" as="targetPoint" />
            <Array as="points">
              <mxPoint x="449.58" y="80" />
              <mxPoint x="449.58" y="80" />
            </Array>
          </mxGeometry>
        </mxCell>
        <mxCell id="oWvp3xGRfrT-TQwUBvzM-21" value="Fine" style="rounded=1;whiteSpace=wrap;html=1;fillColor=#e1d5e7;strokeColor=#9673a6;" vertex="1" parent="1">
          <mxGeometry x="400" y="470" width="100" height="40" as="geometry" />
        </mxCell>
        <mxCell id="oWvp3xGRfrT-TQwUBvzM-22" value="" style="edgeStyle=orthogonalEdgeStyle;rounded=0;orthogonalLoop=1;jettySize=auto;html=1;" edge="1" parent="1">
          <mxGeometry relative="1" as="geometry">
            <mxPoint x="449.58" y="430" as="sourcePoint" />
            <mxPoint x="449.99999999999994" y="470" as="targetPoint" />
            <Array as="points">
              <mxPoint x="449.58" y="450" />
              <mxPoint x="449.58" y="450" />
            </Array>
          </mxGeometry>
        </mxCell>
      </root>
    </mxGraphModel>
  </diagram>
</mxfile>
